<svg width="380" height="181" viewBox="0 0 380 181" fill="none" xmlns="http://www.w3.org/2000/svg">
<mask id="path-1-inside-1_2169_605" fill="white">
<path d="M12 0H109V137H12V0Z"/>
</mask>
<path d="M12 0H109V137H12V0Z" fill="#EDEDED"/>
<path d="M12 2H109V-2H12V2Z" fill="#757575" mask="url(#path-1-inside-1_2169_605)"/>
<path d="M13.04 176V166.64H14.6065V174.531H18.7405V176H13.04ZM19.9716 167.914V166.477H21.5381V167.914H19.9716ZM19.9716 176V168.98H21.5381V176H19.9716ZM26.2997 176.195C25.654 176.195 25.0907 176.033 24.6097 175.707C24.1287 175.382 23.756 174.94 23.4917 174.381C23.2274 173.822 23.0952 173.192 23.0952 172.49C23.0952 171.779 23.2274 171.147 23.4917 170.592C23.7604 170.033 24.1395 169.593 24.6292 169.272C25.1189 168.947 25.6952 168.785 26.3582 168.785C27.0255 168.785 27.5845 168.947 28.0352 169.272C28.4902 169.593 28.8347 170.033 29.0687 170.592C29.3027 171.151 29.4197 171.784 29.4197 172.49C29.4197 173.188 29.3027 173.818 29.0687 174.381C28.8347 174.94 28.4859 175.382 28.0222 175.707C27.5585 176.033 26.9844 176.195 26.2997 176.195ZM26.5402 174.791C26.9605 174.791 27.2985 174.696 27.5542 174.505C27.8142 174.31 28.0027 174.039 28.1197 173.692C28.241 173.346 28.3017 172.945 28.3017 172.49C28.3017 172.031 28.241 171.63 28.1197 171.287C28.0027 170.941 27.8185 170.672 27.5672 170.481C27.3159 170.286 26.9909 170.189 26.5922 170.189C26.1719 170.189 25.8252 170.293 25.5522 170.501C25.2792 170.705 25.0777 170.982 24.9477 171.333C24.8177 171.68 24.7527 172.065 24.7527 172.49C24.7527 172.919 24.8155 173.309 24.9412 173.66C25.0712 174.007 25.2684 174.282 25.5327 174.485C25.797 174.689 26.1329 174.791 26.5402 174.791ZM28.1067 179.12V173.907H28.3017V168.98H29.6862V179.12H28.1067ZM34.1411 176.202C33.6211 176.202 33.1921 176.115 32.8541 175.941C32.5161 175.768 32.2475 175.547 32.0481 175.278C31.8488 175.01 31.7015 174.724 31.6061 174.42C31.5108 174.117 31.448 173.831 31.4176 173.562C31.3916 173.289 31.3786 173.068 31.3786 172.899V168.98H32.9646V172.36C32.9646 172.577 32.9798 172.821 33.0101 173.094C33.0405 173.363 33.1098 173.623 33.2181 173.874C33.3308 174.121 33.4955 174.325 33.7121 174.485C33.9331 174.646 34.23 174.726 34.6026 174.726C34.802 174.726 34.9991 174.693 35.1941 174.628C35.3891 174.563 35.5646 174.453 35.7206 174.297C35.881 174.137 36.0088 173.918 36.1041 173.64C36.1995 173.363 36.2471 173.012 36.2471 172.587L37.1766 172.984C37.1766 173.582 37.0596 174.124 36.8256 174.609C36.596 175.094 36.2558 175.482 35.8051 175.772C35.3545 176.059 34.7998 176.202 34.1411 176.202ZM36.4356 176V173.822H36.2471V168.98H37.8201V176H36.4356ZM39.7763 167.914V166.477H41.3428V167.914H39.7763ZM39.7763 176V168.98H41.3428V176H39.7763ZM46.1044 176.195C45.4587 176.195 44.8954 176.033 44.4144 175.707C43.9334 175.382 43.5607 174.94 43.2964 174.381C43.032 173.822 42.8999 173.192 42.8999 172.49C42.8999 171.779 43.032 171.147 43.2964 170.592C43.565 170.033 43.9442 169.593 44.4339 169.272C44.9235 168.947 45.4999 168.785 46.1629 168.785C46.8302 168.785 47.3892 168.947 47.8399 169.272C48.2949 169.593 48.6394 170.033 48.8734 170.592C49.1074 171.151 49.2244 171.784 49.2244 172.49C49.2244 173.188 49.1074 173.818 48.8734 174.381C48.6394 174.94 48.2905 175.382 47.8269 175.707C47.3632 176.033 46.789 176.195 46.1044 176.195ZM46.3449 174.791C46.7652 174.791 47.1032 174.696 47.3589 174.505C47.6189 174.31 47.8074 174.039 47.9244 173.692C48.0457 173.346 48.1064 172.945 48.1064 172.49C48.1064 172.031 48.0457 171.63 47.9244 171.287C47.8074 170.941 47.6232 170.672 47.3719 170.481C47.1205 170.286 46.7955 170.189 46.3969 170.189C45.9765 170.189 45.6299 170.293 45.3569 170.501C45.0839 170.705 44.8824 170.982 44.7524 171.333C44.6224 171.68 44.5574 172.065 44.5574 172.49C44.5574 172.919 44.6202 173.309 44.7459 173.66C44.8759 174.007 45.073 174.282 45.3374 174.485C45.6017 174.689 45.9375 174.791 46.3449 174.791ZM48.1064 176V171.073H47.9114V166.64H49.4909V176H48.1064ZM51.4433 167.914V166.477H53.0098V167.914H51.4433ZM51.4433 176V168.98H53.0098V176H51.4433ZM59.0714 176C58.6077 176.087 58.1527 176.124 57.7064 176.111C57.2644 176.102 56.8679 176.022 56.5169 175.87C56.1659 175.714 55.8994 175.469 55.7174 175.135C55.557 174.832 55.4725 174.522 55.4639 174.206C55.4552 173.89 55.4509 173.532 55.4509 173.133V167.03H57.0109V173.042C57.0109 173.324 57.013 173.571 57.0174 173.783C57.026 173.996 57.0715 174.169 57.1539 174.303C57.3099 174.563 57.559 174.709 57.9014 174.739C58.2437 174.769 58.6337 174.752 59.0714 174.687V176ZM54.1769 170.208V168.98H59.0714V170.208H54.1769ZM61.3135 179.12L62.6655 175.408L62.6915 176.501L59.63 168.98H61.2615L63.4325 174.544H63.0165L65.129 168.98H66.6955L62.7825 179.12H61.3135ZM73.4589 176.195C72.7483 176.195 72.1243 176.041 71.5869 175.733C71.0496 175.426 70.6293 174.999 70.3259 174.453C70.0269 173.907 69.8774 173.279 69.8774 172.568C69.8774 171.801 70.0248 171.136 70.3194 170.572C70.6141 170.005 71.0236 169.565 71.5479 169.253C72.0723 168.941 72.6789 168.785 73.3679 168.785C74.0959 168.785 74.7134 168.956 75.2204 169.298C75.7318 169.636 76.1109 170.115 76.3579 170.735C76.6049 171.355 76.6981 172.085 76.6374 172.925H75.0839V172.353C75.0796 171.591 74.9453 171.034 74.6809 170.683C74.4166 170.332 74.0006 170.156 73.4329 170.156C72.7916 170.156 72.3149 170.356 72.0029 170.754C71.6909 171.149 71.5349 171.727 71.5349 172.49C71.5349 173.201 71.6909 173.751 72.0029 174.141C72.3149 174.531 72.7699 174.726 73.3679 174.726C73.7536 174.726 74.0851 174.641 74.3624 174.472C74.6441 174.299 74.8608 174.05 75.0124 173.725L76.5594 174.193C76.2908 174.826 75.8748 175.317 75.3114 175.668C74.7524 176.019 74.1349 176.195 73.4589 176.195ZM71.0409 172.925V171.742H75.8704V172.925H71.0409ZM79.7318 176L77.1838 168.98H78.7503L80.5183 174.069L82.2798 168.98H83.8528L81.3048 176H79.7318ZM87.957 176.195C87.2463 176.195 86.6223 176.041 86.085 175.733C85.5476 175.426 85.1273 174.999 84.824 174.453C84.525 173.907 84.3755 173.279 84.3755 172.568C84.3755 171.801 84.5228 171.136 84.8175 170.572C85.1121 170.005 85.5216 169.565 86.046 169.253C86.5703 168.941 87.177 168.785 87.866 168.785C88.594 168.785 89.2115 168.956 89.7185 169.298C90.2298 169.636 90.609 170.115 90.856 170.735C91.103 171.355 91.1961 172.085 91.1355 172.925H89.582V172.353C89.5776 171.591 89.4433 171.034 89.179 170.683C88.9146 170.332 88.4986 170.156 87.931 170.156C87.2896 170.156 86.813 170.356 86.501 170.754C86.189 171.149 86.033 171.727 86.033 172.49C86.033 173.201 86.189 173.751 86.501 174.141C86.813 174.531 87.268 174.726 87.866 174.726C88.2516 174.726 88.5831 174.641 88.8605 174.472C89.1421 174.299 89.3588 174.05 89.5105 173.725L91.0575 174.193C90.7888 174.826 90.3728 175.317 89.8095 175.668C89.2505 176.019 88.633 176.195 87.957 176.195ZM85.539 172.925V171.742H90.3685V172.925H85.539ZM97.2509 176V172.62C97.2509 172.399 97.2357 172.154 97.2054 171.885C97.175 171.617 97.1035 171.359 96.9909 171.112C96.8825 170.861 96.7179 170.655 96.4969 170.494C96.2802 170.334 95.9855 170.254 95.6129 170.254C95.4135 170.254 95.2164 170.286 95.0214 170.351C94.8264 170.416 94.6487 170.529 94.4884 170.689C94.3324 170.845 94.2067 171.062 94.1114 171.339C94.016 171.612 93.9684 171.963 93.9684 172.392L93.0389 171.996C93.0389 171.398 93.1537 170.856 93.3834 170.371C93.6174 169.886 93.9597 169.5 94.4104 169.214C94.861 168.924 95.4157 168.778 96.0744 168.778C96.5944 168.778 97.0234 168.865 97.3614 169.038C97.6994 169.212 97.968 169.433 98.1674 169.701C98.3667 169.97 98.514 170.256 98.6094 170.559C98.7047 170.863 98.7654 171.151 98.7914 171.424C98.8217 171.693 98.8369 171.911 98.8369 172.08V176H97.2509ZM92.3824 176V168.98H93.7799V171.157H93.9684V176H92.3824ZM104.648 176C104.184 176.087 103.729 176.124 103.283 176.111C102.841 176.102 102.444 176.022 102.093 175.87C101.742 175.714 101.476 175.469 101.294 175.135C101.133 174.832 101.049 174.522 101.04 174.206C101.031 173.89 101.027 173.532 101.027 173.133V167.03H102.587V173.042C102.587 173.324 102.589 173.571 102.594 173.783C102.602 173.996 102.648 174.169 102.73 174.303C102.886 174.563 103.135 174.709 103.478 174.739C103.82 174.769 104.21 174.752 104.648 174.687V176ZM99.753 170.208V168.98H104.648V170.208H99.753Z" fill="#6B6B6B"/>
<mask id="path-4-inside-2_2169_605" fill="white">
<path d="M133 0H232V137H133V0Z"/>
</mask>
<path d="M133 0H232V137H133V0Z" fill="#EDEDED"/>
<path d="M133 2H232V-2H133V2Z" fill="#757575" mask="url(#path-4-inside-2_2169_605)"/>
<path d="M137.375 176.195C136.69 176.195 136.072 176.076 135.522 175.837C134.976 175.599 134.525 175.259 134.17 174.817C133.819 174.371 133.596 173.842 133.501 173.231L135.126 172.984C135.264 173.539 135.548 173.968 135.977 174.271C136.41 174.574 136.909 174.726 137.472 174.726C137.806 174.726 138.12 174.674 138.415 174.57C138.709 174.466 138.948 174.314 139.13 174.115C139.316 173.916 139.409 173.671 139.409 173.38C139.409 173.25 139.387 173.131 139.344 173.023C139.301 172.91 139.236 172.811 139.149 172.724C139.067 172.637 138.958 172.559 138.824 172.49C138.694 172.416 138.542 172.353 138.369 172.301L135.951 171.586C135.743 171.526 135.518 171.446 135.275 171.346C135.037 171.242 134.809 171.101 134.593 170.923C134.38 170.741 134.205 170.512 134.066 170.234C133.932 169.953 133.865 169.606 133.865 169.194C133.865 168.592 134.016 168.087 134.32 167.68C134.627 167.268 135.039 166.961 135.555 166.757C136.075 166.553 136.651 166.454 137.284 166.458C137.925 166.462 138.497 166.573 139 166.789C139.502 167.002 139.923 167.312 140.261 167.719C140.599 168.126 140.837 168.618 140.976 169.194L139.292 169.487C139.223 169.158 139.088 168.878 138.889 168.648C138.694 168.414 138.454 168.237 138.168 168.115C137.886 167.994 137.585 167.929 137.264 167.92C136.952 167.916 136.662 167.964 136.393 168.063C136.129 168.159 135.914 168.297 135.75 168.479C135.589 168.661 135.509 168.874 135.509 169.116C135.509 169.346 135.578 169.535 135.717 169.682C135.856 169.825 136.027 169.94 136.231 170.026C136.439 170.109 136.649 170.178 136.861 170.234L138.538 170.702C138.768 170.763 139.026 170.845 139.312 170.949C139.598 171.053 139.873 171.199 140.137 171.385C140.401 171.571 140.618 171.816 140.787 172.119C140.96 172.423 141.047 172.808 141.047 173.276C141.047 173.762 140.945 174.189 140.742 174.557C140.542 174.921 140.271 175.224 139.929 175.467C139.587 175.71 139.195 175.892 138.753 176.013C138.315 176.134 137.856 176.195 137.375 176.195ZM145.645 176.195C144.935 176.195 144.311 176.041 143.773 175.733C143.236 175.426 142.816 174.999 142.512 174.453C142.213 173.907 142.064 173.279 142.064 172.568C142.064 171.801 142.211 171.136 142.506 170.572C142.801 170.005 143.21 169.565 143.734 169.253C144.259 168.941 144.865 168.785 145.554 168.785C146.282 168.785 146.9 168.956 147.407 169.298C147.918 169.636 148.297 170.115 148.544 170.735C148.791 171.355 148.885 172.085 148.824 172.925H147.27V172.353C147.266 171.591 147.132 171.034 146.867 170.683C146.603 170.332 146.187 170.156 145.619 170.156C144.978 170.156 144.501 170.356 144.189 170.754C143.877 171.149 143.721 171.727 143.721 172.49C143.721 173.201 143.877 173.751 144.189 174.141C144.501 174.531 144.956 174.726 145.554 174.726C145.94 174.726 146.272 174.641 146.549 174.472C146.831 174.299 147.047 174.05 147.199 173.725L148.746 174.193C148.477 174.826 148.061 175.317 147.498 175.668C146.939 176.019 146.321 176.195 145.645 176.195ZM143.227 172.925V171.742H148.057V172.925H143.227ZM153.323 176.195C152.599 176.195 151.982 176.035 151.47 175.714C150.959 175.389 150.567 174.947 150.294 174.388C150.025 173.829 149.889 173.196 149.884 172.49C149.889 171.771 150.029 171.134 150.307 170.579C150.588 170.02 150.987 169.582 151.503 169.266C152.018 168.945 152.632 168.785 153.342 168.785C154.14 168.785 154.813 168.986 155.364 169.389C155.918 169.788 156.28 170.334 156.449 171.027L154.889 171.45C154.768 171.073 154.566 170.78 154.285 170.572C154.003 170.36 153.682 170.254 153.323 170.254C152.915 170.254 152.58 170.351 152.315 170.546C152.051 170.737 151.856 171.001 151.73 171.339C151.605 171.677 151.542 172.061 151.542 172.49C151.542 173.157 151.691 173.697 151.99 174.108C152.289 174.52 152.733 174.726 153.323 174.726C153.739 174.726 154.066 174.631 154.304 174.44C154.547 174.249 154.729 173.974 154.85 173.614L156.449 173.972C156.233 174.687 155.853 175.237 155.312 175.623C154.77 176.004 154.107 176.195 153.323 176.195ZM160.662 176.195C159.96 176.195 159.347 176.037 158.822 175.72C158.298 175.404 157.891 174.969 157.6 174.414C157.314 173.855 157.171 173.214 157.171 172.49C157.171 171.753 157.319 171.108 157.613 170.553C157.908 169.998 158.318 169.565 158.842 169.253C159.366 168.941 159.973 168.785 160.662 168.785C161.368 168.785 161.984 168.943 162.508 169.259C163.032 169.576 163.44 170.013 163.73 170.572C164.02 171.127 164.165 171.766 164.165 172.49C164.165 173.218 164.018 173.861 163.723 174.42C163.433 174.975 163.026 175.411 162.501 175.727C161.977 176.039 161.364 176.195 160.662 176.195ZM160.662 174.726C161.286 174.726 161.75 174.518 162.053 174.102C162.356 173.686 162.508 173.149 162.508 172.49C162.508 171.81 162.354 171.268 162.046 170.865C161.739 170.458 161.277 170.254 160.662 170.254C160.242 170.254 159.895 170.349 159.622 170.54C159.353 170.726 159.154 170.988 159.024 171.326C158.894 171.66 158.829 172.048 158.829 172.49C158.829 173.17 158.983 173.714 159.29 174.121C159.602 174.524 160.06 174.726 160.662 174.726ZM170.453 176V172.62C170.453 172.399 170.438 172.154 170.408 171.885C170.377 171.617 170.306 171.359 170.193 171.112C170.085 170.861 169.92 170.655 169.699 170.494C169.482 170.334 169.188 170.254 168.815 170.254C168.616 170.254 168.419 170.286 168.224 170.351C168.029 170.416 167.851 170.529 167.691 170.689C167.535 170.845 167.409 171.062 167.314 171.339C167.218 171.612 167.171 171.963 167.171 172.392L166.241 171.996C166.241 171.398 166.356 170.856 166.586 170.371C166.82 169.886 167.162 169.5 167.613 169.214C168.063 168.924 168.618 168.778 169.277 168.778C169.797 168.778 170.226 168.865 170.564 169.038C170.902 169.212 171.17 169.433 171.369 169.701C171.569 169.97 171.716 170.256 171.812 170.559C171.907 170.863 171.968 171.151 171.994 171.424C172.024 171.693 172.039 171.911 172.039 172.08V176H170.453ZM165.585 176V168.98H166.982V171.157H167.171V176H165.585ZM176.435 176.195C175.79 176.195 175.226 176.033 174.745 175.707C174.264 175.382 173.892 174.94 173.627 174.381C173.363 173.822 173.231 173.192 173.231 172.49C173.231 171.779 173.363 171.147 173.627 170.592C173.896 170.033 174.275 169.593 174.765 169.272C175.255 168.947 175.831 168.785 176.494 168.785C177.161 168.785 177.72 168.947 178.171 169.272C178.626 169.593 178.97 170.033 179.204 170.592C179.438 171.151 179.555 171.784 179.555 172.49C179.555 173.188 179.438 173.818 179.204 174.381C178.97 174.94 178.622 175.382 178.158 175.707C177.694 176.033 177.12 176.195 176.435 176.195ZM176.676 174.791C177.096 174.791 177.434 174.696 177.69 174.505C177.95 174.31 178.138 174.039 178.255 173.692C178.377 173.346 178.437 172.945 178.437 172.49C178.437 172.031 178.377 171.63 178.255 171.287C178.138 170.941 177.954 170.672 177.703 170.481C177.452 170.286 177.127 170.189 176.728 170.189C176.308 170.189 175.961 170.293 175.688 170.501C175.415 170.705 175.213 170.982 175.083 171.333C174.953 171.68 174.888 172.065 174.888 172.49C174.888 172.919 174.951 173.309 175.077 173.66C175.207 174.007 175.404 174.282 175.668 174.485C175.933 174.689 176.269 174.791 176.676 174.791ZM178.437 176V171.073H178.242V166.64H179.822V176H178.437ZM183.607 176.195C183.1 176.195 182.671 176.1 182.32 175.909C181.969 175.714 181.703 175.456 181.521 175.135C181.343 174.815 181.254 174.462 181.254 174.076C181.254 173.738 181.311 173.435 181.423 173.166C181.536 172.893 181.709 172.659 181.943 172.464C182.177 172.265 182.481 172.102 182.853 171.976C183.135 171.885 183.464 171.803 183.841 171.729C184.223 171.656 184.634 171.589 185.076 171.528C185.523 171.463 185.989 171.394 186.474 171.32L185.915 171.638C185.919 171.153 185.811 170.796 185.59 170.566C185.369 170.336 184.996 170.221 184.472 170.221C184.156 170.221 183.85 170.295 183.555 170.442C183.261 170.59 183.055 170.843 182.938 171.203L181.508 170.754C181.681 170.161 182.011 169.684 182.496 169.324C182.986 168.965 183.644 168.785 184.472 168.785C185.096 168.785 185.644 168.887 186.116 169.09C186.593 169.294 186.946 169.628 187.176 170.091C187.302 170.338 187.377 170.592 187.403 170.852C187.429 171.108 187.442 171.387 187.442 171.69V176H186.071V174.479L186.298 174.726C185.982 175.233 185.612 175.606 185.187 175.844C184.767 176.078 184.24 176.195 183.607 176.195ZM183.919 174.947C184.275 174.947 184.578 174.884 184.829 174.758C185.081 174.633 185.28 174.479 185.427 174.297C185.579 174.115 185.681 173.944 185.733 173.783C185.815 173.584 185.861 173.357 185.869 173.101C185.882 172.841 185.889 172.631 185.889 172.47L186.37 172.613C185.898 172.687 185.492 172.752 185.154 172.808C184.816 172.865 184.526 172.919 184.283 172.971C184.041 173.019 183.826 173.073 183.64 173.133C183.458 173.198 183.304 173.274 183.178 173.361C183.053 173.448 182.955 173.547 182.886 173.66C182.821 173.773 182.788 173.905 182.788 174.056C182.788 174.23 182.832 174.384 182.918 174.518C183.005 174.648 183.131 174.752 183.295 174.83C183.464 174.908 183.672 174.947 183.919 174.947ZM189.135 176V168.98H190.519V170.689L190.35 170.468C190.437 170.234 190.552 170.022 190.695 169.831C190.842 169.636 191.017 169.476 191.221 169.35C191.394 169.233 191.585 169.142 191.793 169.077C192.005 169.008 192.222 168.967 192.443 168.954C192.664 168.937 192.879 168.945 193.087 168.98V170.442C192.879 170.382 192.638 170.362 192.365 170.384C192.096 170.406 191.854 170.481 191.637 170.611C191.42 170.728 191.243 170.878 191.104 171.06C190.97 171.242 190.87 171.45 190.805 171.684C190.74 171.914 190.708 172.163 190.708 172.431V176H189.135ZM195.034 179.12L196.386 175.408L196.412 176.501L193.351 168.98H194.982L197.153 174.544H196.737L198.85 168.98H200.416L196.503 179.12H195.034ZM206.699 176.195C205.832 176.195 205.128 176 204.586 175.61C204.044 175.22 203.715 174.672 203.598 173.965L205.197 173.718C205.279 174.065 205.461 174.338 205.743 174.537C206.025 174.737 206.38 174.836 206.809 174.836C207.186 174.836 207.476 174.763 207.68 174.615C207.888 174.464 207.992 174.258 207.992 173.998C207.992 173.838 207.953 173.71 207.875 173.614C207.801 173.515 207.637 173.419 207.381 173.328C207.125 173.237 206.733 173.123 206.205 172.984C205.615 172.828 205.147 172.661 204.801 172.483C204.454 172.301 204.205 172.087 204.053 171.84C203.901 171.593 203.826 171.294 203.826 170.943C203.826 170.505 203.94 170.124 204.17 169.799C204.4 169.474 204.72 169.225 205.132 169.051C205.544 168.874 206.029 168.785 206.588 168.785C207.134 168.785 207.617 168.869 208.038 169.038C208.462 169.207 208.805 169.448 209.065 169.76C209.325 170.072 209.485 170.438 209.546 170.858L207.947 171.144C207.908 170.845 207.771 170.609 207.537 170.436C207.307 170.263 207 170.165 206.614 170.143C206.246 170.122 205.949 170.178 205.724 170.312C205.498 170.442 205.386 170.627 205.386 170.865C205.386 170.999 205.431 171.114 205.522 171.209C205.613 171.305 205.795 171.4 206.068 171.495C206.345 171.591 206.757 171.708 207.303 171.846C207.862 171.989 208.308 172.154 208.642 172.34C208.98 172.522 209.223 172.741 209.37 172.997C209.522 173.253 209.598 173.562 209.598 173.926C209.598 174.633 209.34 175.187 208.824 175.59C208.313 175.994 207.604 176.195 206.699 176.195ZM212.984 176.195C212.477 176.195 212.048 176.1 211.697 175.909C211.346 175.714 211.08 175.456 210.898 175.135C210.72 174.815 210.631 174.462 210.631 174.076C210.631 173.738 210.688 173.435 210.8 173.166C210.913 172.893 211.086 172.659 211.32 172.464C211.554 172.265 211.858 172.102 212.23 171.976C212.512 171.885 212.841 171.803 213.218 171.729C213.6 171.656 214.011 171.589 214.453 171.528C214.9 171.463 215.365 171.394 215.851 171.32L215.292 171.638C215.296 171.153 215.188 170.796 214.967 170.566C214.746 170.336 214.373 170.221 213.849 170.221C213.532 170.221 213.227 170.295 212.932 170.442C212.638 170.59 212.432 170.843 212.315 171.203L210.885 170.754C211.058 170.161 211.387 169.684 211.873 169.324C212.362 168.965 213.021 168.785 213.849 168.785C214.473 168.785 215.021 168.887 215.493 169.09C215.97 169.294 216.323 169.628 216.553 170.091C216.678 170.338 216.754 170.592 216.78 170.852C216.806 171.108 216.819 171.387 216.819 171.69V176H215.448V174.479L215.675 174.726C215.359 175.233 214.988 175.606 214.564 175.844C214.143 176.078 213.617 176.195 212.984 176.195ZM213.296 174.947C213.652 174.947 213.955 174.884 214.206 174.758C214.458 174.633 214.657 174.479 214.804 174.297C214.956 174.115 215.058 173.944 215.11 173.783C215.192 173.584 215.238 173.357 215.246 173.101C215.259 172.841 215.266 172.631 215.266 172.47L215.747 172.613C215.274 172.687 214.869 172.752 214.531 172.808C214.193 172.865 213.903 172.919 213.66 172.971C213.418 173.019 213.203 173.073 213.017 173.133C212.835 173.198 212.681 173.274 212.555 173.361C212.43 173.448 212.332 173.547 212.263 173.66C212.198 173.773 212.165 173.905 212.165 174.056C212.165 174.23 212.209 174.384 212.295 174.518C212.382 174.648 212.508 174.752 212.672 174.83C212.841 174.908 213.049 174.947 213.296 174.947ZM218.642 176V166.445H220.208V176H218.642ZM225.347 176.195C224.636 176.195 224.012 176.041 223.475 175.733C222.937 175.426 222.517 174.999 222.214 174.453C221.915 173.907 221.765 173.279 221.765 172.568C221.765 171.801 221.912 171.136 222.207 170.572C222.502 170.005 222.911 169.565 223.436 169.253C223.96 168.941 224.567 168.785 225.256 168.785C225.984 168.785 226.601 168.956 227.108 169.298C227.619 169.636 227.999 170.115 228.246 170.735C228.493 171.355 228.586 172.085 228.525 172.925H226.972V172.353C226.967 171.591 226.833 171.034 226.569 170.683C226.304 170.332 225.888 170.156 225.321 170.156C224.679 170.156 224.203 170.356 223.891 170.754C223.579 171.149 223.423 171.727 223.423 172.49C223.423 173.201 223.579 173.751 223.891 174.141C224.203 174.531 224.658 174.726 225.256 174.726C225.641 174.726 225.973 174.641 226.25 174.472C226.532 174.299 226.748 174.05 226.9 173.725L228.447 174.193C228.178 174.826 227.762 175.317 227.199 175.668C226.64 176.019 226.023 176.195 225.347 176.195ZM222.929 172.925V171.742H227.758V172.925H222.929Z" fill="#6B6B6B"/>
</svg>
