<svg width="380" height="181" viewBox="0 0 380 181" fill="none" xmlns="http://www.w3.org/2000/svg">
<mask id="path-1-inside-1_2169_587" fill="white">
<path d="M12 0H137V137H12V0Z"/>
</mask>
<path d="M12 0H137V137H12V0Z" fill="#EDEDED"/>
<path d="M12 2H137V-2H12V2Z" fill="#757575" mask="url(#path-1-inside-1_2169_587)"/>
<path d="M12.91 176V166.64H18.955V168.109H14.4765V170.416H18.175V171.885H14.4765V174.531H18.955V176H12.91ZM19.7345 176L22.302 172.451L19.7865 168.98H21.6325L23.212 171.222L24.7655 168.98H26.6115L24.096 172.451L26.6765 176H24.8305L23.212 173.679L21.5805 176H19.7345ZM30.6503 176.195C29.9397 176.195 29.3157 176.041 28.7783 175.733C28.241 175.426 27.8207 174.999 27.5173 174.453C27.2183 173.907 27.0688 173.279 27.0688 172.568C27.0688 171.801 27.2162 171.136 27.5108 170.572C27.8055 170.005 28.215 169.565 28.7393 169.253C29.2637 168.941 29.8703 168.785 30.5593 168.785C31.2873 168.785 31.9048 168.956 32.4118 169.298C32.9232 169.636 33.3023 170.115 33.5493 170.735C33.7963 171.355 33.8895 172.085 33.8288 172.925H32.2753V172.353C32.271 171.591 32.1367 171.034 31.8723 170.683C31.608 170.332 31.192 170.156 30.6243 170.156C29.983 170.156 29.5063 170.356 29.1943 170.754C28.8823 171.149 28.7263 171.727 28.7263 172.49C28.7263 173.201 28.8823 173.751 29.1943 174.141C29.5063 174.531 29.9613 174.726 30.5593 174.726C30.945 174.726 31.2765 174.641 31.5538 174.472C31.8355 174.299 32.0522 174.05 32.2038 173.725L33.7508 174.193C33.4822 174.826 33.0662 175.317 32.5028 175.668C31.9438 176.019 31.3263 176.195 30.6503 176.195ZM28.2323 172.925V171.742H33.0618V172.925H28.2323ZM35.2791 176V168.98H36.6636V170.689L36.4946 170.468C36.5813 170.234 36.6961 170.022 36.8391 169.831C36.9865 169.636 37.162 169.476 37.3656 169.35C37.539 169.233 37.7296 169.142 37.9376 169.077C38.15 169.008 38.3666 168.967 38.5876 168.954C38.8086 168.937 39.0231 168.945 39.2311 168.98V170.442C39.0231 170.382 38.7826 170.362 38.5096 170.384C38.241 170.406 37.9983 170.481 37.7816 170.611C37.565 170.728 37.3873 170.878 37.2486 171.06C37.1143 171.242 37.0146 171.45 36.9496 171.684C36.8846 171.914 36.8521 172.163 36.8521 172.431V176H35.2791ZM43.3931 176.195C42.6694 176.195 42.0519 176.035 41.5406 175.714C41.0292 175.389 40.6371 174.947 40.3641 174.388C40.0954 173.829 39.9589 173.196 39.9546 172.49C39.9589 171.771 40.0997 171.134 40.3771 170.579C40.6587 170.02 41.0574 169.582 41.5731 169.266C42.0887 168.945 42.7019 168.785 43.4126 168.785C44.2099 168.785 44.8837 168.986 45.4341 169.389C45.9887 169.788 46.3506 170.334 46.5196 171.027L44.9596 171.45C44.8382 171.073 44.6367 170.78 44.3551 170.572C44.0734 170.36 43.7527 170.254 43.3931 170.254C42.9857 170.254 42.6499 170.351 42.3856 170.546C42.1212 170.737 41.9262 171.001 41.8006 171.339C41.6749 171.677 41.6121 172.061 41.6121 172.49C41.6121 173.157 41.7616 173.697 42.0606 174.108C42.3596 174.52 42.8037 174.726 43.3931 174.726C43.8091 174.726 44.1362 174.631 44.3746 174.44C44.6172 174.249 44.7992 173.974 44.9206 173.614L46.5196 173.972C46.3029 174.687 45.9237 175.237 45.3821 175.623C44.8404 176.004 44.1774 176.195 43.3931 176.195ZM47.7617 167.914V166.477H49.3282V167.914H47.7617ZM47.7617 176V168.98H49.3282V176H47.7617ZM53.9857 176.195C53.1191 176.195 52.4149 176 51.8732 175.61C51.3316 175.22 51.0022 174.672 50.8852 173.965L52.4842 173.718C52.5666 174.065 52.7486 174.338 53.0302 174.537C53.3119 174.737 53.6672 174.836 54.0962 174.836C54.4732 174.836 54.7636 174.763 54.9672 174.615C55.1752 174.464 55.2792 174.258 55.2792 173.998C55.2792 173.838 55.2402 173.71 55.1622 173.614C55.0886 173.515 54.9239 173.419 54.6682 173.328C54.4126 173.237 54.0204 173.123 53.4917 172.984C52.9024 172.828 52.4344 172.661 52.0877 172.483C51.7411 172.301 51.4919 172.087 51.3402 171.84C51.1886 171.593 51.1127 171.294 51.1127 170.943C51.1127 170.505 51.2276 170.124 51.4572 169.799C51.6869 169.474 52.0076 169.225 52.4192 169.051C52.8309 168.874 53.3162 168.785 53.8752 168.785C54.4212 168.785 54.9044 168.869 55.3247 169.038C55.7494 169.207 56.0917 169.448 56.3517 169.76C56.6117 170.072 56.7721 170.438 56.8327 170.858L55.2337 171.144C55.1947 170.845 55.0582 170.609 54.8242 170.436C54.5946 170.263 54.2869 170.165 53.9012 170.143C53.5329 170.122 53.2361 170.178 53.0107 170.312C52.7854 170.442 52.6727 170.627 52.6727 170.865C52.6727 170.999 52.7182 171.114 52.8092 171.209C52.9002 171.305 53.0822 171.4 53.3552 171.495C53.6326 171.591 54.0442 171.708 54.5902 171.846C55.1492 171.989 55.5956 172.154 55.9292 172.34C56.2672 172.522 56.5099 172.741 56.6572 172.997C56.8089 173.253 56.8847 173.562 56.8847 173.926C56.8847 174.633 56.6269 175.187 56.1112 175.59C55.5999 175.994 54.8914 176.195 53.9857 176.195ZM61.4999 176.195C60.7893 176.195 60.1653 176.041 59.6279 175.733C59.0906 175.426 58.6703 174.999 58.3669 174.453C58.0679 173.907 57.9184 173.279 57.9184 172.568C57.9184 171.801 58.0658 171.136 58.3604 170.572C58.6551 170.005 59.0646 169.565 59.5889 169.253C60.1133 168.941 60.7199 168.785 61.4089 168.785C62.1369 168.785 62.7544 168.956 63.2614 169.298C63.7728 169.636 64.1519 170.115 64.3989 170.735C64.6459 171.355 64.7391 172.085 64.6784 172.925H63.1249V172.353C63.1206 171.591 62.9863 171.034 62.7219 170.683C62.4576 170.332 62.0416 170.156 61.4739 170.156C60.8326 170.156 60.3559 170.356 60.0439 170.754C59.7319 171.149 59.5759 171.727 59.5759 172.49C59.5759 173.201 59.7319 173.751 60.0439 174.141C60.3559 174.531 60.8109 174.726 61.4089 174.726C61.7946 174.726 62.1261 174.641 62.4034 174.472C62.6851 174.299 62.9018 174.05 63.0534 173.725L64.6004 174.193C64.3318 174.826 63.9158 175.317 63.3524 175.668C62.7934 176.019 62.1759 176.195 61.4999 176.195ZM59.0819 172.925V171.742H63.9114V172.925H59.0819ZM71.9228 176.195C71.2121 176.195 70.5881 176.041 70.0508 175.733C69.5135 175.426 69.0931 174.999 68.7898 174.453C68.4908 173.907 68.3413 173.279 68.3413 172.568C68.3413 171.801 68.4886 171.136 68.7833 170.572C69.078 170.005 69.4875 169.565 70.0118 169.253C70.5361 168.941 71.1428 168.785 71.8318 168.785C72.5598 168.785 73.1773 168.956 73.6843 169.298C74.1956 169.636 74.5748 170.115 74.8218 170.735C75.0688 171.355 75.162 172.085 75.1013 172.925H73.5478V172.353C73.5435 171.591 73.4091 171.034 73.1448 170.683C72.8805 170.332 72.4645 170.156 71.8968 170.156C71.2555 170.156 70.7788 170.356 70.4668 170.754C70.1548 171.149 69.9988 171.727 69.9988 172.49C69.9988 173.201 70.1548 173.751 70.4668 174.141C70.7788 174.531 71.2338 174.726 71.8318 174.726C72.2175 174.726 72.549 174.641 72.8263 174.472C73.108 174.299 73.3246 174.05 73.4763 173.725L75.0233 174.193C74.7546 174.826 74.3386 175.317 73.7753 175.668C73.2163 176.019 72.5988 176.195 71.9228 176.195ZM69.5048 172.925V171.742H74.3343V172.925H69.5048ZM75.5177 176L78.0852 172.451L75.5697 168.98H77.4157L78.9952 171.222L80.5487 168.98H82.3947L79.8792 172.451L82.4597 176H80.6137L78.9952 173.679L77.3637 176H75.5177ZM86.8694 176.195C86.1848 176.195 85.6106 176.033 85.1469 175.707C84.6833 175.382 84.3344 174.94 84.1004 174.381C83.8664 173.818 83.7494 173.188 83.7494 172.49C83.7494 171.784 83.8664 171.151 84.1004 170.592C84.3344 170.033 84.6768 169.593 85.1274 169.272C85.5824 168.947 86.1436 168.785 86.8109 168.785C87.4739 168.785 88.0481 168.947 88.5334 169.272C89.0231 169.593 89.4023 170.033 89.6709 170.592C89.9396 171.147 90.0739 171.779 90.0739 172.49C90.0739 173.192 89.9418 173.822 89.6774 174.381C89.4131 174.94 89.0404 175.382 88.5594 175.707C88.0784 176.033 87.5151 176.195 86.8694 176.195ZM83.4829 179.12V168.98H84.8674V173.907H85.0624V179.12H83.4829ZM86.6289 174.791C87.0363 174.791 87.3721 174.689 87.6364 174.485C87.9008 174.282 88.0958 174.007 88.2214 173.66C88.3514 173.309 88.4164 172.919 88.4164 172.49C88.4164 172.065 88.3514 171.68 88.2214 171.333C88.0914 170.982 87.8899 170.705 87.6169 170.501C87.3439 170.293 86.9973 170.189 86.5769 170.189C86.1783 170.189 85.8533 170.286 85.6019 170.481C85.3506 170.672 85.1643 170.941 85.0429 171.287C84.9259 171.63 84.8674 172.031 84.8674 172.49C84.8674 172.945 84.9259 173.346 85.0429 173.692C85.1643 174.039 85.3528 174.31 85.6084 174.505C85.8684 174.696 86.2086 174.791 86.6289 174.791ZM91.6367 167.914V166.477H93.2032V167.914H91.6367ZM91.6367 176V168.98H93.2032V176H91.6367ZM95.1502 176V168.98H96.5347V170.689L96.3657 170.468C96.4524 170.234 96.5672 170.022 96.7102 169.831C96.8576 169.636 97.0331 169.476 97.2367 169.35C97.4101 169.233 97.6007 169.142 97.8087 169.077C98.0211 169.008 98.2377 168.967 98.4587 168.954C98.6797 168.937 98.8942 168.945 99.1022 168.98V170.442C98.8942 170.382 98.6537 170.362 98.3807 170.384C98.1121 170.406 97.8694 170.481 97.6527 170.611C97.4361 170.728 97.2584 170.878 97.1197 171.06C96.9854 171.242 96.8857 171.45 96.8207 171.684C96.7557 171.914 96.7232 172.163 96.7232 172.431V176H95.1502ZM102.141 176.195C101.634 176.195 101.205 176.1 100.854 175.909C100.503 175.714 100.236 175.456 100.054 175.135C99.8764 174.815 99.7876 174.462 99.7876 174.076C99.7876 173.738 99.8439 173.435 99.9566 173.166C100.069 172.893 100.243 172.659 100.477 172.464C100.711 172.265 101.014 172.102 101.387 171.976C101.668 171.885 101.998 171.803 102.375 171.729C102.756 171.656 103.168 171.589 103.61 171.528C104.056 171.463 104.522 171.394 105.007 171.32L104.448 171.638C104.452 171.153 104.344 170.796 104.123 170.566C103.902 170.336 103.529 170.221 103.005 170.221C102.689 170.221 102.383 170.295 102.089 170.442C101.794 170.59 101.588 170.843 101.471 171.203L100.041 170.754C100.214 170.161 100.544 169.684 101.029 169.324C101.519 168.965 102.177 168.785 103.005 168.785C103.629 168.785 104.177 168.887 104.65 169.09C105.126 169.294 105.479 169.628 105.709 170.091C105.835 170.338 105.911 170.592 105.937 170.852C105.963 171.108 105.976 171.387 105.976 171.69V176H104.604V174.479L104.832 174.726C104.515 175.233 104.145 175.606 103.72 175.844C103.3 176.078 102.773 176.195 102.141 176.195ZM102.453 174.947C102.808 174.947 103.111 174.884 103.363 174.758C103.614 174.633 103.813 174.479 103.961 174.297C104.112 174.115 104.214 173.944 104.266 173.783C104.348 173.584 104.394 173.357 104.403 173.101C104.416 172.841 104.422 172.631 104.422 172.47L104.903 172.613C104.431 172.687 104.026 172.752 103.688 172.808C103.35 172.865 103.059 172.919 102.817 172.971C102.574 173.019 102.359 173.073 102.173 173.133C101.991 173.198 101.837 173.274 101.712 173.361C101.586 173.448 101.488 173.547 101.419 173.66C101.354 173.773 101.322 173.905 101.322 174.056C101.322 174.23 101.365 174.384 101.452 174.518C101.538 174.648 101.664 174.752 101.829 174.83C101.998 174.908 102.206 174.947 102.453 174.947ZM111.782 176C111.319 176.087 110.864 176.124 110.417 176.111C109.975 176.102 109.579 176.022 109.228 175.87C108.877 175.714 108.61 175.469 108.428 175.135C108.268 174.832 108.183 174.522 108.175 174.206C108.166 173.89 108.162 173.532 108.162 173.133V167.03H109.722V173.042C109.722 173.324 109.724 173.571 109.728 173.783C109.737 173.996 109.782 174.169 109.865 174.303C110.021 174.563 110.27 174.709 110.612 174.739C110.955 174.769 111.345 174.752 111.782 174.687V176ZM106.888 170.208V168.98H111.782V170.208H106.888ZM113.422 167.914V166.477H114.988V167.914H113.422ZM113.422 176V168.98H114.988V176H113.422ZM120.036 176.195C119.334 176.195 118.721 176.037 118.196 175.72C117.672 175.404 117.265 174.969 116.974 174.414C116.688 173.855 116.545 173.214 116.545 172.49C116.545 171.753 116.693 171.108 116.987 170.553C117.282 169.998 117.692 169.565 118.216 169.253C118.74 168.941 119.347 168.785 120.036 168.785C120.742 168.785 121.358 168.943 121.882 169.259C122.406 169.576 122.814 170.013 123.104 170.572C123.394 171.127 123.539 171.766 123.539 172.49C123.539 173.218 123.392 173.861 123.097 174.42C122.807 174.975 122.4 175.411 121.875 175.727C121.351 176.039 120.738 176.195 120.036 176.195ZM120.036 174.726C120.66 174.726 121.124 174.518 121.427 174.102C121.73 173.686 121.882 173.149 121.882 172.49C121.882 171.81 121.728 171.268 121.42 170.865C121.113 170.458 120.651 170.254 120.036 170.254C119.616 170.254 119.269 170.349 118.996 170.54C118.727 170.726 118.528 170.988 118.398 171.326C118.268 171.66 118.203 172.048 118.203 172.49C118.203 173.17 118.357 173.714 118.664 174.121C118.976 174.524 119.434 174.726 120.036 174.726ZM129.827 176V172.62C129.827 172.399 129.812 172.154 129.782 171.885C129.751 171.617 129.68 171.359 129.567 171.112C129.459 170.861 129.294 170.655 129.073 170.494C128.856 170.334 128.562 170.254 128.189 170.254C127.99 170.254 127.793 170.286 127.598 170.351C127.403 170.416 127.225 170.529 127.065 170.689C126.909 170.845 126.783 171.062 126.688 171.339C126.592 171.612 126.545 171.963 126.545 172.392L125.615 171.996C125.615 171.398 125.73 170.856 125.96 170.371C126.194 169.886 126.536 169.5 126.987 169.214C127.437 168.924 127.992 168.778 128.651 168.778C129.171 168.778 129.6 168.865 129.938 169.038C130.276 169.212 130.544 169.433 130.744 169.701C130.943 169.97 131.09 170.256 131.186 170.559C131.281 170.863 131.342 171.151 131.368 171.424C131.398 171.693 131.413 171.911 131.413 172.08V176H129.827ZM124.959 176V168.98H126.356V171.157H126.545V176H124.959Z" fill="#6B6B6B"/>
<mask id="path-4-inside-2_2169_587" fill="white">
<path d="M161 0H240V137H161V0Z"/>
</mask>
<path d="M161 0H240V137H161V0Z" fill="#EDEDED"/>
<path d="M161 2H240V-2H161V2Z" fill="#757575" mask="url(#path-4-inside-2_2169_587)"/>
<path d="M161.91 176V166.64H165.778C165.869 166.64 165.986 166.644 166.129 166.653C166.272 166.657 166.404 166.67 166.525 166.692C167.067 166.774 167.513 166.954 167.864 167.231C168.219 167.509 168.482 167.86 168.651 168.284C168.824 168.705 168.911 169.173 168.911 169.688C168.911 170.451 168.718 171.108 168.332 171.658C167.946 172.204 167.355 172.542 166.558 172.672L165.888 172.73H163.477V176H161.91ZM167.286 176L165.44 172.191L167.032 171.84L169.06 176H167.286ZM163.477 171.268H165.713C165.799 171.268 165.897 171.264 166.005 171.255C166.113 171.246 166.213 171.229 166.304 171.203C166.564 171.138 166.768 171.023 166.915 170.858C167.067 170.694 167.173 170.507 167.234 170.299C167.299 170.091 167.331 169.888 167.331 169.688C167.331 169.489 167.299 169.285 167.234 169.077C167.173 168.865 167.067 168.677 166.915 168.512C166.768 168.347 166.564 168.232 166.304 168.167C166.213 168.141 166.113 168.126 166.005 168.122C165.897 168.113 165.799 168.109 165.713 168.109H163.477V171.268ZM173.957 176.195C173.272 176.195 172.654 176.076 172.104 175.837C171.558 175.599 171.107 175.259 170.752 174.817C170.401 174.371 170.178 173.842 170.083 173.231L171.708 172.984C171.846 173.539 172.13 173.968 172.559 174.271C172.992 174.574 173.491 174.726 174.054 174.726C174.388 174.726 174.702 174.674 174.997 174.57C175.291 174.466 175.53 174.314 175.712 174.115C175.898 173.916 175.991 173.671 175.991 173.38C175.991 173.25 175.969 173.131 175.926 173.023C175.883 172.91 175.818 172.811 175.731 172.724C175.649 172.637 175.54 172.559 175.406 172.49C175.276 172.416 175.124 172.353 174.951 172.301L172.533 171.586C172.325 171.526 172.1 171.446 171.857 171.346C171.619 171.242 171.391 171.101 171.175 170.923C170.962 170.741 170.787 170.512 170.648 170.234C170.514 169.953 170.447 169.606 170.447 169.194C170.447 168.592 170.598 168.087 170.902 167.68C171.209 167.268 171.621 166.961 172.137 166.757C172.657 166.553 173.233 166.454 173.866 166.458C174.507 166.462 175.079 166.573 175.582 166.789C176.084 167.002 176.505 167.312 176.843 167.719C177.181 168.126 177.419 168.618 177.558 169.194L175.874 169.487C175.805 169.158 175.67 168.878 175.471 168.648C175.276 168.414 175.036 168.237 174.75 168.115C174.468 167.994 174.167 167.929 173.846 167.92C173.534 167.916 173.244 167.964 172.975 168.063C172.711 168.159 172.496 168.297 172.332 168.479C172.171 168.661 172.091 168.874 172.091 169.116C172.091 169.346 172.16 169.535 172.299 169.682C172.438 169.825 172.609 169.94 172.813 170.026C173.021 170.109 173.231 170.178 173.443 170.234L175.12 170.702C175.35 170.763 175.608 170.845 175.894 170.949C176.18 171.053 176.455 171.199 176.719 171.385C176.983 171.571 177.2 171.816 177.369 172.119C177.542 172.423 177.629 172.808 177.629 173.276C177.629 173.762 177.527 174.189 177.324 174.557C177.124 174.921 176.853 175.224 176.511 175.467C176.169 175.71 175.777 175.892 175.335 176.013C174.897 176.134 174.438 176.195 173.957 176.195ZM182.806 176.195C182.061 176.195 181.404 176.043 180.836 175.74C180.273 175.437 179.831 175.01 179.51 174.459C179.194 173.909 179.036 173.263 179.036 172.522V166.653L180.622 166.64V172.483C180.622 172.834 180.68 173.149 180.797 173.426C180.919 173.703 181.081 173.939 181.285 174.134C181.489 174.325 181.723 174.47 181.987 174.57C182.251 174.67 182.524 174.719 182.806 174.719C183.096 174.719 183.371 174.67 183.631 174.57C183.896 174.466 184.13 174.319 184.333 174.128C184.537 173.933 184.697 173.697 184.814 173.419C184.931 173.142 184.99 172.83 184.99 172.483V166.64H186.576V172.522C186.576 173.263 186.416 173.909 186.095 174.459C185.779 175.01 185.337 175.437 184.769 175.74C184.206 176.043 183.551 176.195 182.806 176.195ZM192.893 176L190.345 168.98H191.911L193.679 174.069L195.441 168.98H197.014L194.466 176H192.893ZM201.118 176.195C200.407 176.195 199.783 176.041 199.246 175.733C198.709 175.426 198.288 174.999 197.985 174.453C197.686 173.907 197.537 173.279 197.537 172.568C197.537 171.801 197.684 171.136 197.979 170.572C198.273 170.005 198.683 169.565 199.207 169.253C199.731 168.941 200.338 168.785 201.027 168.785C201.755 168.785 202.373 168.956 202.88 169.298C203.391 169.636 203.77 170.115 204.017 170.735C204.264 171.355 204.357 172.085 204.297 172.925H202.743V172.353C202.739 171.591 202.604 171.034 202.34 170.683C202.076 170.332 201.66 170.156 201.092 170.156C200.451 170.156 199.974 170.356 199.662 170.754C199.35 171.149 199.194 171.727 199.194 172.49C199.194 173.201 199.35 173.751 199.662 174.141C199.974 174.531 200.429 174.726 201.027 174.726C201.413 174.726 201.744 174.641 202.022 174.472C202.303 174.299 202.52 174.05 202.672 173.725L204.219 174.193C203.95 174.826 203.534 175.317 202.971 175.668C202.412 176.019 201.794 176.195 201.118 176.195ZM198.7 172.925V171.742H203.53V172.925H198.7ZM208.457 176.195C207.591 176.195 206.887 176 206.345 175.61C205.803 175.22 205.474 174.672 205.357 173.965L206.956 173.718C207.038 174.065 207.22 174.338 207.502 174.537C207.784 174.737 208.139 174.836 208.568 174.836C208.945 174.836 209.235 174.763 209.439 174.615C209.647 174.464 209.751 174.258 209.751 173.998C209.751 173.838 209.712 173.71 209.634 173.614C209.56 173.515 209.396 173.419 209.14 173.328C208.884 173.237 208.492 173.123 207.963 172.984C207.374 172.828 206.906 172.661 206.559 172.483C206.213 172.301 205.964 172.087 205.812 171.84C205.66 171.593 205.584 171.294 205.584 170.943C205.584 170.505 205.699 170.124 205.929 169.799C206.159 169.474 206.479 169.225 206.891 169.051C207.303 168.874 207.788 168.785 208.347 168.785C208.893 168.785 209.376 168.869 209.796 169.038C210.221 169.207 210.563 169.448 210.823 169.76C211.083 170.072 211.244 170.438 211.304 170.858L209.705 171.144C209.666 170.845 209.53 170.609 209.296 170.436C209.066 170.263 208.759 170.165 208.373 170.143C208.005 170.122 207.708 170.178 207.482 170.312C207.257 170.442 207.144 170.627 207.144 170.865C207.144 170.999 207.19 171.114 207.281 171.209C207.372 171.305 207.554 171.4 207.827 171.495C208.104 171.591 208.516 171.708 209.062 171.846C209.621 171.989 210.067 172.154 210.401 172.34C210.739 172.522 210.982 172.741 211.129 172.997C211.281 173.253 211.356 173.562 211.356 173.926C211.356 174.633 211.099 175.187 210.583 175.59C210.072 175.994 209.363 176.195 208.457 176.195ZM216.895 176C216.431 176.087 215.976 176.124 215.53 176.111C215.088 176.102 214.691 176.022 214.34 175.87C213.989 175.714 213.723 175.469 213.541 175.135C213.38 174.832 213.296 174.522 213.287 174.206C213.278 173.89 213.274 173.532 213.274 173.133V167.03H214.834V173.042C214.834 173.324 214.836 173.571 214.841 173.783C214.849 173.996 214.895 174.169 214.977 174.303C215.133 174.563 215.382 174.709 215.725 174.739C216.067 174.769 216.457 174.752 216.895 174.687V176ZM212 170.208V168.98H216.895V170.208H212ZM218.534 167.914V166.477H220.101V167.914H218.534ZM218.534 176V168.98H220.101V176H218.534ZM226.903 176V172.62C226.903 172.399 226.888 172.154 226.858 171.885C226.827 171.617 226.756 171.359 226.643 171.112C226.535 170.861 226.37 170.655 226.149 170.494C225.933 170.334 225.638 170.254 225.265 170.254C225.066 170.254 224.869 170.286 224.674 170.351C224.479 170.416 224.301 170.529 224.141 170.689C223.985 170.845 223.859 171.062 223.764 171.339C223.668 171.612 223.621 171.963 223.621 172.392L222.691 171.996C222.691 171.398 222.806 170.856 223.036 170.371C223.27 169.886 223.612 169.5 224.063 169.214C224.513 168.924 225.068 168.778 225.727 168.778C226.247 168.778 226.676 168.865 227.014 169.038C227.352 169.212 227.62 169.433 227.82 169.701C228.019 169.97 228.166 170.256 228.262 170.559C228.357 170.863 228.418 171.151 228.444 171.424C228.474 171.693 228.489 171.911 228.489 172.08V176H226.903ZM222.035 176V168.98H223.432V171.157H223.621V176H222.035ZM233.136 179.315C232.746 179.315 232.372 179.254 232.012 179.133C231.657 179.012 231.336 178.836 231.05 178.607C230.764 178.381 230.53 178.108 230.348 177.788L231.791 177.073C231.925 177.328 232.114 177.517 232.356 177.638C232.603 177.764 232.866 177.827 233.143 177.827C233.468 177.827 233.758 177.768 234.014 177.651C234.27 177.538 234.467 177.369 234.605 177.144C234.748 176.923 234.816 176.646 234.807 176.312V174.316H235.002V168.98H236.373V176.338C236.373 176.516 236.365 176.685 236.347 176.845C236.334 177.01 236.311 177.17 236.276 177.326C236.172 177.781 235.973 178.154 235.678 178.444C235.383 178.739 235.017 178.958 234.579 179.101C234.146 179.244 233.665 179.315 233.136 179.315ZM233 176.195C232.354 176.195 231.791 176.033 231.31 175.707C230.829 175.382 230.456 174.94 230.192 174.381C229.928 173.822 229.795 173.192 229.795 172.49C229.795 171.779 229.928 171.147 230.192 170.592C230.461 170.033 230.84 169.593 231.329 169.272C231.819 168.947 232.395 168.785 233.058 168.785C233.726 168.785 234.285 168.947 234.735 169.272C235.19 169.593 235.535 170.033 235.769 170.592C236.003 171.151 236.12 171.784 236.12 172.49C236.12 173.188 236.003 173.818 235.769 174.381C235.535 174.94 235.186 175.382 234.722 175.707C234.259 176.033 233.685 176.195 233 176.195ZM233.24 174.791C233.661 174.791 233.999 174.696 234.254 174.505C234.514 174.31 234.703 174.039 234.82 173.692C234.941 173.346 235.002 172.945 235.002 172.49C235.002 172.031 234.941 171.63 234.82 171.287C234.703 170.941 234.519 170.672 234.267 170.481C234.016 170.286 233.691 170.189 233.292 170.189C232.872 170.189 232.525 170.293 232.252 170.501C231.979 170.705 231.778 170.982 231.648 171.333C231.518 171.68 231.453 172.065 231.453 172.49C231.453 172.919 231.516 173.309 231.641 173.66C231.771 174.007 231.969 174.282 232.233 174.485C232.497 174.689 232.833 174.791 233.24 174.791Z" fill="#6B6B6B"/>
<mask id="path-7-inside-3_2169_587" fill="white">
<path d="M264 0H347V137H264V0Z"/>
</mask>
<path d="M264 0H347V137H264V0Z" fill="#EDEDED"/>
<path d="M264 2H347V-2H264V2Z" fill="#757575" mask="url(#path-7-inside-3_2169_587)"/>
<path d="M268.869 176.195C267.933 176.195 267.131 175.991 266.464 175.584C265.796 175.172 265.283 174.6 264.923 173.868C264.568 173.136 264.39 172.286 264.39 171.32C264.39 170.354 264.568 169.504 264.923 168.772C265.283 168.04 265.796 167.47 266.464 167.062C267.131 166.651 267.933 166.445 268.869 166.445C269.805 166.445 270.606 166.651 271.274 167.062C271.945 167.47 272.459 168.04 272.814 168.772C273.174 169.504 273.354 170.354 273.354 171.32C273.354 172.286 273.174 173.136 272.814 173.868C272.459 174.6 271.945 175.172 271.274 175.584C270.606 175.991 269.805 176.195 268.869 176.195ZM268.869 174.719C269.497 174.724 270.019 174.585 270.435 174.303C270.855 174.022 271.17 173.625 271.378 173.114C271.59 172.603 271.696 172.005 271.696 171.32C271.696 170.635 271.59 170.042 271.378 169.539C271.17 169.032 270.855 168.638 270.435 168.356C270.019 168.074 269.497 167.929 268.869 167.92C268.24 167.916 267.718 168.055 267.302 168.336C266.886 168.618 266.572 169.015 266.36 169.526C266.152 170.037 266.048 170.635 266.048 171.32C266.048 172.005 266.152 172.6 266.36 173.107C266.568 173.61 266.88 174.002 267.296 174.284C267.716 174.566 268.24 174.711 268.869 174.719ZM278.021 176.195C277.336 176.195 276.762 176.033 276.298 175.707C275.835 175.382 275.486 174.94 275.252 174.381C275.018 173.818 274.901 173.188 274.901 172.49C274.901 171.784 275.018 171.151 275.252 170.592C275.486 170.033 275.828 169.593 276.279 169.272C276.734 168.947 277.295 168.785 277.962 168.785C278.625 168.785 279.199 168.947 279.685 169.272C280.174 169.593 280.554 170.033 280.822 170.592C281.091 171.147 281.225 171.779 281.225 172.49C281.225 173.192 281.093 173.822 280.829 174.381C280.564 174.94 280.192 175.382 279.711 175.707C279.23 176.033 278.666 176.195 278.021 176.195ZM274.634 179.12V168.98H276.019V173.907H276.214V179.12H274.634ZM277.78 174.791C278.188 174.791 278.523 174.689 278.788 174.485C279.052 174.282 279.247 174.007 279.373 173.66C279.503 173.309 279.568 172.919 279.568 172.49C279.568 172.065 279.503 171.68 279.373 171.333C279.243 170.982 279.041 170.705 278.768 170.501C278.495 170.293 278.149 170.189 277.728 170.189C277.33 170.189 277.005 170.286 276.753 170.481C276.502 170.672 276.316 170.941 276.194 171.287C276.077 171.63 276.019 172.031 276.019 172.49C276.019 172.945 276.077 173.346 276.194 173.692C276.316 174.039 276.504 174.31 276.76 174.505C277.02 174.696 277.36 174.791 277.78 174.791ZM286.773 176C286.309 176.087 285.854 176.124 285.408 176.111C284.966 176.102 284.569 176.022 284.218 175.87C283.867 175.714 283.601 175.469 283.419 175.135C283.258 174.832 283.174 174.522 283.165 174.206C283.156 173.89 283.152 173.532 283.152 173.133V167.03H284.712V173.042C284.712 173.324 284.714 173.571 284.719 173.783C284.727 173.996 284.773 174.169 284.855 174.303C285.011 174.563 285.26 174.709 285.603 174.739C285.945 174.769 286.335 174.752 286.773 174.687V176ZM281.878 170.208V168.98H286.773V170.208H281.878ZM288.412 167.914V166.477H289.979V167.914H288.412ZM288.412 176V168.98H289.979V176H288.412ZM295.026 176.195C294.324 176.195 293.711 176.037 293.187 175.72C292.662 175.404 292.255 174.969 291.965 174.414C291.679 173.855 291.536 173.214 291.536 172.49C291.536 171.753 291.683 171.108 291.978 170.553C292.272 169.998 292.682 169.565 293.206 169.253C293.73 168.941 294.337 168.785 295.026 168.785C295.732 168.785 296.348 168.943 296.872 169.259C297.396 169.576 297.804 170.013 298.094 170.572C298.384 171.127 298.53 171.766 298.53 172.49C298.53 173.218 298.382 173.861 298.088 174.42C297.797 174.975 297.39 175.411 296.866 175.727C296.341 176.039 295.728 176.195 295.026 176.195ZM295.026 174.726C295.65 174.726 296.114 174.518 296.417 174.102C296.72 173.686 296.872 173.149 296.872 172.49C296.872 171.81 296.718 171.268 296.411 170.865C296.103 170.458 295.641 170.254 295.026 170.254C294.606 170.254 294.259 170.349 293.986 170.54C293.717 170.726 293.518 170.988 293.388 171.326C293.258 171.66 293.193 172.048 293.193 172.49C293.193 173.17 293.347 173.714 293.655 174.121C293.967 174.524 294.424 174.726 295.026 174.726ZM304.817 176V172.62C304.817 172.399 304.802 172.154 304.772 171.885C304.741 171.617 304.67 171.359 304.557 171.112C304.449 170.861 304.284 170.655 304.063 170.494C303.847 170.334 303.552 170.254 303.179 170.254C302.98 170.254 302.783 170.286 302.588 170.351C302.393 170.416 302.215 170.529 302.055 170.689C301.899 170.845 301.773 171.062 301.678 171.339C301.582 171.612 301.535 171.963 301.535 172.392L300.605 171.996C300.605 171.398 300.72 170.856 300.95 170.371C301.184 169.886 301.526 169.5 301.977 169.214C302.427 168.924 302.982 168.778 303.641 168.778C304.161 168.778 304.59 168.865 304.928 169.038C305.266 169.212 305.534 169.433 305.734 169.701C305.933 169.97 306.08 170.256 306.176 170.559C306.271 170.863 306.332 171.151 306.358 171.424C306.388 171.693 306.403 171.911 306.403 172.08V176H304.817ZM299.949 176V168.98H301.346V171.157H301.535V176H299.949ZM313.653 179.315C313.263 179.315 312.888 179.254 312.528 179.133C312.173 179.012 311.852 178.836 311.566 178.607C311.28 178.381 311.046 178.108 310.864 177.788L312.307 177.073C312.442 177.328 312.63 177.517 312.873 177.638C313.12 177.764 313.382 177.827 313.659 177.827C313.984 177.827 314.275 177.768 314.53 177.651C314.786 177.538 314.983 177.369 315.122 177.144C315.265 176.923 315.332 176.646 315.323 176.312V174.316H315.518V168.98H316.89V176.338C316.89 176.516 316.881 176.685 316.864 176.845C316.851 177.01 316.827 177.17 316.792 177.326C316.688 177.781 316.489 178.154 316.194 178.444C315.9 178.739 315.534 178.958 315.096 179.101C314.663 179.244 314.182 179.315 313.653 179.315ZM313.516 176.195C312.871 176.195 312.307 176.033 311.826 175.707C311.345 175.382 310.973 174.94 310.708 174.381C310.444 173.822 310.312 173.192 310.312 172.49C310.312 171.779 310.444 171.147 310.708 170.592C310.977 170.033 311.356 169.593 311.846 169.272C312.336 168.947 312.912 168.785 313.575 168.785C314.242 168.785 314.801 168.947 315.252 169.272C315.707 169.593 316.051 170.033 316.285 170.592C316.519 171.151 316.636 171.784 316.636 172.49C316.636 173.188 316.519 173.818 316.285 174.381C316.051 174.94 315.703 175.382 315.239 175.707C314.775 176.033 314.201 176.195 313.516 176.195ZM313.757 174.791C314.177 174.791 314.515 174.696 314.771 174.505C315.031 174.31 315.219 174.039 315.336 173.692C315.458 173.346 315.518 172.945 315.518 172.49C315.518 172.031 315.458 171.63 315.336 171.287C315.219 170.941 315.035 170.672 314.784 170.481C314.533 170.286 314.208 170.189 313.809 170.189C313.389 170.189 313.042 170.293 312.769 170.501C312.496 170.705 312.294 170.982 312.164 171.333C312.034 171.68 311.969 172.065 311.969 172.49C311.969 172.919 312.032 173.309 312.158 173.66C312.288 174.007 312.485 174.282 312.749 174.485C313.014 174.689 313.35 174.791 313.757 174.791ZM318.713 176V168.98H320.097V170.689L319.928 170.468C320.015 170.234 320.13 170.022 320.273 169.831C320.42 169.636 320.596 169.476 320.799 169.35C320.973 169.233 321.163 169.142 321.371 169.077C321.584 169.008 321.8 168.967 322.021 168.954C322.242 168.937 322.457 168.945 322.665 168.98V170.442C322.457 170.382 322.216 170.362 321.943 170.384C321.675 170.406 321.432 170.481 321.215 170.611C320.999 170.728 320.821 170.878 320.682 171.06C320.548 171.242 320.448 171.45 320.383 171.684C320.318 171.914 320.286 172.163 320.286 172.431V176H318.713ZM325.703 176.195C325.196 176.195 324.767 176.1 324.416 175.909C324.065 175.714 323.799 175.456 323.617 175.135C323.439 174.815 323.35 174.462 323.35 174.076C323.35 173.738 323.406 173.435 323.519 173.166C323.632 172.893 323.805 172.659 324.039 172.464C324.273 172.265 324.576 172.102 324.949 171.976C325.231 171.885 325.56 171.803 325.937 171.729C326.318 171.656 326.73 171.589 327.172 171.528C327.618 171.463 328.084 171.394 328.57 171.32L328.011 171.638C328.015 171.153 327.907 170.796 327.686 170.566C327.465 170.336 327.092 170.221 326.568 170.221C326.251 170.221 325.946 170.295 325.651 170.442C325.356 170.59 325.151 170.843 325.034 171.203L323.604 170.754C323.777 170.161 324.106 169.684 324.592 169.324C325.081 168.965 325.74 168.785 326.568 168.785C327.192 168.785 327.74 168.887 328.212 169.09C328.689 169.294 329.042 169.628 329.272 170.091C329.397 170.338 329.473 170.592 329.499 170.852C329.525 171.108 329.538 171.387 329.538 171.69V176H328.167V174.479L328.394 174.726C328.078 175.233 327.707 175.606 327.283 175.844C326.862 176.078 326.336 176.195 325.703 176.195ZM326.015 174.947C326.37 174.947 326.674 174.884 326.925 174.758C327.176 174.633 327.376 174.479 327.523 174.297C327.675 174.115 327.777 173.944 327.829 173.783C327.911 173.584 327.956 173.357 327.965 173.101C327.978 172.841 327.985 172.631 327.985 172.47L328.466 172.613C327.993 172.687 327.588 172.752 327.25 172.808C326.912 172.865 326.622 172.919 326.379 172.971C326.136 173.019 325.922 173.073 325.736 173.133C325.554 173.198 325.4 173.274 325.274 173.361C325.148 173.448 325.051 173.547 324.982 173.66C324.917 173.773 324.884 173.905 324.884 174.056C324.884 174.23 324.927 174.384 325.014 174.518C325.101 174.648 325.226 174.752 325.391 174.83C325.56 174.908 325.768 174.947 326.015 174.947ZM336.086 176V172.62C336.086 172.399 336.071 172.154 336.04 171.885C336.01 171.617 335.938 171.359 335.826 171.112C335.717 170.861 335.553 170.655 335.332 170.494C335.115 170.334 334.82 170.254 334.448 170.254C334.248 170.254 334.051 170.286 333.856 170.351C333.661 170.416 333.484 170.529 333.323 170.689C333.167 170.845 333.042 171.062 332.946 171.339C332.851 171.612 332.803 171.963 332.803 172.392L331.874 171.996C331.874 171.398 331.989 170.856 332.218 170.371C332.452 169.886 332.795 169.5 333.245 169.214C333.696 168.924 334.251 168.778 334.909 168.778C335.429 168.778 335.858 168.865 336.196 169.038C336.534 169.212 336.803 169.433 337.002 169.701C337.202 169.97 337.349 170.256 337.444 170.559C337.54 170.863 337.6 171.151 337.626 171.424C337.657 171.693 337.672 171.911 337.672 172.08V176H336.086ZM331.217 176V168.98H332.615V171.157H332.803V176H331.217ZM343.483 176C343.019 176.087 342.564 176.124 342.118 176.111C341.676 176.102 341.279 176.022 340.928 175.87C340.577 175.714 340.311 175.469 340.129 175.135C339.968 174.832 339.884 174.522 339.875 174.206C339.866 173.89 339.862 173.532 339.862 173.133V167.03H341.422V173.042C341.422 173.324 341.424 173.571 341.429 173.783C341.437 173.996 341.483 174.169 341.565 174.303C341.721 174.563 341.97 174.709 342.313 174.739C342.655 174.769 343.045 174.752 343.483 174.687V176ZM338.588 170.208V168.98H343.483V170.208H338.588Z" fill="#6B6B6B"/>
</svg>
