<svg width="380" height="232" viewBox="0 0 380 232" fill="none" xmlns="http://www.w3.org/2000/svg">
<g clip-path="url(#clip0_2172_738)">
<path fill-rule="evenodd" clip-rule="evenodd" d="M2.38494 102.653C16.8168 102.653 16.8168 32.6946 31.2488 32.6946C45.6807 32.6946 45.6807 48.5941 60.1127 48.5941C74.5445 48.5941 74.5445 89.9331 88.9764 89.9331C103.408 89.9331 103.408 42.2343 117.841 42.2343C132.273 42.2343 132.273 96.2929 146.704 96.2929C161.136 96.2929 161.136 64.4937 175.568 64.4937C190 64.4937 190 51.7741 204.432 51.7741C218.864 51.7741 218.864 112.192 233.296 112.192C247.727 112.192 247.727 134.452 262.159 134.452C276.591 134.452 276.592 16.795 291.024 16.795C305.456 16.795 305.456 80.3933 319.888 80.3933C334.319 80.3933 334.319 118.552 348.751 118.552C363.183 118.552 363.183 35.8745 377.615 35.8745V134.452H262.159H2.38494V102.653Z" fill="url(#paint0_linear_2172_738)"/>
<path d="M2.38494 102.653C16.8168 102.653 16.8168 32.6946 31.2488 32.6946C45.6807 32.6946 45.6807 48.5941 60.1127 48.5941C74.5446 48.5941 74.5445 89.9331 88.9764 89.9331C103.408 89.9331 103.408 42.2343 117.841 42.2343C132.273 42.2343 132.273 96.2929 146.704 96.2929C161.136 96.2929 161.136 64.4937 175.568 64.4937C190 64.4937 190 51.7741 204.432 51.7741C218.864 51.7741 218.864 112.192 233.296 112.192C247.727 112.192 247.727 134.452 262.159 134.452C276.592 134.452 276.592 16.795 291.024 16.795C305.456 16.795 305.456 80.3933 319.888 80.3933C334.319 80.3933 334.319 118.552 348.751 118.552C363.183 118.552 363.183 35.8745 377.615 35.8745" stroke="#637887" stroke-width="3"/>
</g>
<path d="M2.782 211.195C2.067 211.195 1.47117 211.009 0.9945 210.636C0.522167 210.263 0.190667 209.761 0 209.128L1.547 208.757C1.59467 209.022 1.73333 209.249 1.963 209.44C2.19267 209.631 2.44617 209.726 2.7235 209.726C2.9055 209.726 3.09833 209.678 3.302 209.583C3.50567 209.483 3.65733 209.325 3.757 209.108C3.81767 208.97 3.85233 208.805 3.861 208.614C3.874 208.419 3.8805 208.194 3.8805 207.938V201.64H5.4665V207.938C5.4665 208.229 5.46433 208.484 5.46 208.705C5.46 208.922 5.43833 209.128 5.395 209.323C5.356 209.514 5.27583 209.711 5.1545 209.914C4.89883 210.356 4.56517 210.681 4.1535 210.889C3.74183 211.093 3.28467 211.195 2.782 211.195ZM10.0552 211.202C9.5352 211.202 9.1062 211.115 8.7682 210.941C8.4302 210.768 8.16153 210.547 7.9622 210.278C7.76286 210.01 7.61553 209.724 7.5202 209.42C7.42486 209.117 7.36203 208.831 7.3317 208.562C7.3057 208.289 7.2927 208.068 7.2927 207.899V203.98H8.8787V207.36C8.8787 207.577 8.89386 207.821 8.9242 208.094C8.95453 208.363 9.02386 208.623 9.1322 208.874C9.24486 209.121 9.40953 209.325 9.6262 209.485C9.8472 209.646 10.144 209.726 10.5167 209.726C10.716 209.726 10.9132 209.693 11.1082 209.628C11.3032 209.563 11.4787 209.453 11.6347 209.297C11.795 209.137 11.9229 208.918 12.0182 208.64C12.1135 208.363 12.1612 208.012 12.1612 207.587L13.0907 207.984C13.0907 208.582 12.9737 209.124 12.7397 209.609C12.51 210.094 12.1699 210.482 11.7192 210.772C11.2685 211.059 10.7139 211.202 10.0552 211.202ZM12.3497 211V208.822H12.1612V203.98H13.7342V211H12.3497ZM15.6904 211V201.445H17.2569V211H15.6904ZM23.4315 211V203.349L21.6765 204.422V202.693L23.4315 201.64H25.0305V211H23.4315Z" fill="#637887"/>
<path d="M111.927 211L114.878 201.64H117.172L120.123 211H118.511L115.833 202.602H116.184L113.539 211H111.927ZM113.571 208.972V207.509H118.485V208.972H113.571ZM123.931 211.202C123.411 211.202 122.982 211.115 122.644 210.941C122.306 210.768 122.037 210.547 121.838 210.278C121.638 210.01 121.491 209.724 121.396 209.42C121.3 209.117 121.238 208.831 121.207 208.562C121.181 208.289 121.168 208.068 121.168 207.899V203.98H122.754V207.36C122.754 207.577 122.769 207.821 122.8 208.094C122.83 208.363 122.899 208.623 123.008 208.874C123.12 209.121 123.285 209.325 123.502 209.485C123.723 209.646 124.02 209.726 124.392 209.726C124.592 209.726 124.789 209.693 124.984 209.628C125.179 209.563 125.354 209.453 125.51 209.297C125.671 209.137 125.798 208.918 125.894 208.64C125.989 208.363 126.037 208.012 126.037 207.587L126.966 207.984C126.966 208.582 126.849 209.124 126.615 209.609C126.386 210.094 126.045 210.482 125.595 210.772C125.144 211.059 124.589 211.202 123.931 211.202ZM126.225 211V208.822H126.037V203.98H127.61V211H126.225ZM132.387 214.315C131.997 214.315 131.622 214.254 131.262 214.133C130.907 214.012 130.586 213.836 130.3 213.607C130.014 213.381 129.78 213.108 129.598 212.788L131.041 212.073C131.176 212.328 131.364 212.517 131.607 212.638C131.854 212.764 132.116 212.827 132.393 212.827C132.718 212.827 133.009 212.768 133.264 212.651C133.52 212.538 133.717 212.369 133.856 212.144C133.999 211.923 134.066 211.646 134.057 211.312V209.316H134.252V203.98H135.624V211.338C135.624 211.516 135.615 211.685 135.598 211.845C135.585 212.01 135.561 212.17 135.526 212.326C135.422 212.781 135.223 213.154 134.928 213.444C134.634 213.739 134.268 213.958 133.83 214.101C133.397 214.244 132.916 214.315 132.387 214.315ZM132.25 211.195C131.605 211.195 131.041 211.033 130.56 210.707C130.079 210.382 129.707 209.94 129.442 209.381C129.178 208.822 129.046 208.192 129.046 207.49C129.046 206.779 129.178 206.147 129.442 205.592C129.711 205.033 130.09 204.593 130.58 204.272C131.07 203.947 131.646 203.785 132.309 203.785C132.976 203.785 133.535 203.947 133.986 204.272C134.441 204.593 134.785 205.033 135.019 205.592C135.253 206.151 135.37 206.784 135.37 207.49C135.37 208.188 135.253 208.818 135.019 209.381C134.785 209.94 134.437 210.382 133.973 210.707C133.509 211.033 132.935 211.195 132.25 211.195ZM132.491 209.791C132.911 209.791 133.249 209.696 133.505 209.505C133.765 209.31 133.953 209.039 134.07 208.692C134.192 208.346 134.252 207.945 134.252 207.49C134.252 207.031 134.192 206.63 134.07 206.287C133.953 205.941 133.769 205.672 133.518 205.481C133.267 205.286 132.942 205.189 132.543 205.189C132.123 205.189 131.776 205.293 131.503 205.501C131.23 205.705 131.028 205.982 130.898 206.333C130.768 206.68 130.703 207.065 130.703 207.49C130.703 207.919 130.766 208.309 130.892 208.66C131.022 209.007 131.219 209.282 131.483 209.485C131.748 209.689 132.084 209.791 132.491 209.791ZM141.674 211V203.349L139.919 204.422V202.693L141.674 201.64H143.273V211H141.674Z" fill="#637887"/>
<path d="M234.708 211.195C234.023 211.195 233.406 211.076 232.855 210.837C232.309 210.599 231.859 210.259 231.503 209.817C231.152 209.371 230.929 208.842 230.834 208.231L232.459 207.984C232.598 208.539 232.881 208.968 233.31 209.271C233.744 209.574 234.242 209.726 234.805 209.726C235.139 209.726 235.453 209.674 235.748 209.57C236.043 209.466 236.281 209.314 236.463 209.115C236.649 208.916 236.742 208.671 236.742 208.38C236.742 208.25 236.721 208.131 236.677 208.023C236.634 207.91 236.569 207.811 236.482 207.724C236.4 207.637 236.292 207.559 236.157 207.49C236.027 207.416 235.876 207.353 235.702 207.301L233.284 206.586C233.076 206.526 232.851 206.446 232.608 206.346C232.37 206.242 232.143 206.101 231.926 205.923C231.714 205.741 231.538 205.512 231.399 205.234C231.265 204.953 231.198 204.606 231.198 204.194C231.198 203.592 231.35 203.087 231.653 202.68C231.961 202.268 232.372 201.961 232.888 201.757C233.408 201.553 233.984 201.454 234.617 201.458C235.258 201.462 235.83 201.573 236.333 201.789C236.836 202.002 237.256 202.312 237.594 202.719C237.932 203.126 238.17 203.618 238.309 204.194L236.625 204.487C236.556 204.158 236.422 203.878 236.222 203.648C236.027 203.414 235.787 203.237 235.501 203.115C235.219 202.994 234.918 202.929 234.597 202.92C234.285 202.916 233.995 202.964 233.726 203.063C233.462 203.159 233.248 203.297 233.083 203.479C232.923 203.661 232.842 203.874 232.842 204.116C232.842 204.346 232.912 204.535 233.05 204.682C233.189 204.825 233.36 204.94 233.564 205.026C233.772 205.109 233.982 205.178 234.194 205.234L235.871 205.702C236.101 205.763 236.359 205.845 236.645 205.949C236.931 206.053 237.206 206.199 237.47 206.385C237.735 206.571 237.951 206.816 238.12 207.119C238.294 207.423 238.38 207.808 238.38 208.276C238.38 208.762 238.279 209.189 238.075 209.557C237.876 209.921 237.605 210.224 237.262 210.467C236.92 210.71 236.528 210.892 236.086 211.013C235.648 211.134 235.189 211.195 234.708 211.195ZM242.979 211.195C242.268 211.195 241.644 211.041 241.107 210.733C240.57 210.426 240.149 209.999 239.846 209.453C239.547 208.907 239.397 208.279 239.397 207.568C239.397 206.801 239.545 206.136 239.839 205.572C240.134 205.005 240.544 204.565 241.068 204.253C241.592 203.941 242.199 203.785 242.888 203.785C243.616 203.785 244.233 203.956 244.74 204.298C245.252 204.636 245.631 205.115 245.878 205.735C246.125 206.355 246.218 207.085 246.157 207.925H244.604V207.353C244.6 206.591 244.465 206.034 244.201 205.683C243.937 205.332 243.521 205.156 242.953 205.156C242.312 205.156 241.835 205.356 241.523 205.754C241.211 206.149 241.055 206.727 241.055 207.49C241.055 208.201 241.211 208.751 241.523 209.141C241.835 209.531 242.29 209.726 242.888 209.726C243.274 209.726 243.605 209.641 243.882 209.472C244.164 209.299 244.381 209.05 244.532 208.725L246.079 209.193C245.811 209.826 245.395 210.317 244.831 210.668C244.272 211.019 243.655 211.195 242.979 211.195ZM240.561 207.925V206.742H245.39V207.925H240.561ZM250.791 211.195C250.106 211.195 249.532 211.033 249.068 210.707C248.605 210.382 248.256 209.94 248.022 209.381C247.788 208.818 247.671 208.188 247.671 207.49C247.671 206.784 247.788 206.151 248.022 205.592C248.256 205.033 248.598 204.593 249.049 204.272C249.504 203.947 250.065 203.785 250.732 203.785C251.395 203.785 251.969 203.947 252.455 204.272C252.944 204.593 253.324 205.033 253.592 205.592C253.861 206.147 253.995 206.779 253.995 207.49C253.995 208.192 253.863 208.822 253.599 209.381C253.334 209.94 252.962 210.382 252.481 210.707C252 211.033 251.436 211.195 250.791 211.195ZM247.404 214.12V203.98H248.789V208.907H248.984V214.12H247.404ZM250.55 209.791C250.958 209.791 251.293 209.689 251.558 209.485C251.822 209.282 252.017 209.007 252.143 208.66C252.273 208.309 252.338 207.919 252.338 207.49C252.338 207.065 252.273 206.68 252.143 206.333C252.013 205.982 251.811 205.705 251.538 205.501C251.265 205.293 250.919 205.189 250.498 205.189C250.1 205.189 249.775 205.286 249.523 205.481C249.272 205.672 249.086 205.941 248.964 206.287C248.847 206.63 248.789 207.031 248.789 207.49C248.789 207.945 248.847 208.346 248.964 208.692C249.086 209.039 249.274 209.31 249.53 209.505C249.79 209.696 250.13 209.791 250.55 209.791ZM259.656 211V203.349L257.901 204.422V202.693L259.656 201.64H261.255V211H259.656Z" fill="#637887"/>
<path d="M352.869 211.195C351.933 211.195 351.131 210.991 350.464 210.584C349.796 210.172 349.283 209.6 348.923 208.868C348.568 208.136 348.39 207.286 348.39 206.32C348.39 205.354 348.568 204.504 348.923 203.772C349.283 203.04 349.796 202.47 350.464 202.062C351.131 201.651 351.933 201.445 352.869 201.445C353.805 201.445 354.606 201.651 355.274 202.062C355.945 202.47 356.459 203.04 356.814 203.772C357.174 204.504 357.354 205.354 357.354 206.32C357.354 207.286 357.174 208.136 356.814 208.868C356.459 209.6 355.945 210.172 355.274 210.584C354.606 210.991 353.805 211.195 352.869 211.195ZM352.869 209.719C353.497 209.724 354.019 209.585 354.435 209.303C354.855 209.022 355.17 208.625 355.378 208.114C355.59 207.603 355.696 207.005 355.696 206.32C355.696 205.635 355.59 205.042 355.378 204.539C355.17 204.032 354.855 203.638 354.435 203.356C354.019 203.074 353.497 202.929 352.869 202.92C352.24 202.916 351.718 203.055 351.302 203.336C350.886 203.618 350.572 204.015 350.36 204.526C350.152 205.037 350.048 205.635 350.048 206.32C350.048 207.005 350.152 207.6 350.36 208.107C350.568 208.61 350.88 209.002 351.296 209.284C351.716 209.566 352.24 209.711 352.869 209.719ZM361.696 211.195C360.972 211.195 360.355 211.035 359.843 210.714C359.332 210.389 358.94 209.947 358.667 209.388C358.398 208.829 358.262 208.196 358.257 207.49C358.262 206.771 358.402 206.134 358.68 205.579C358.961 205.02 359.36 204.582 359.876 204.266C360.391 203.945 361.005 203.785 361.715 203.785C362.513 203.785 363.186 203.986 363.737 204.389C364.291 204.788 364.653 205.334 364.822 206.027L363.262 206.45C363.141 206.073 362.939 205.78 362.658 205.572C362.376 205.36 362.055 205.254 361.696 205.254C361.288 205.254 360.953 205.351 360.688 205.546C360.424 205.737 360.229 206.001 360.103 206.339C359.978 206.677 359.915 207.061 359.915 207.49C359.915 208.157 360.064 208.697 360.363 209.108C360.662 209.52 361.106 209.726 361.696 209.726C362.112 209.726 362.439 209.631 362.677 209.44C362.92 209.249 363.102 208.974 363.223 208.614L364.822 208.972C364.606 209.687 364.226 210.237 363.685 210.623C363.143 211.004 362.48 211.195 361.696 211.195ZM370.239 211C369.776 211.087 369.321 211.124 368.874 211.111C368.432 211.102 368.036 211.022 367.685 210.87C367.334 210.714 367.067 210.469 366.885 210.135C366.725 209.832 366.641 209.522 366.632 209.206C366.623 208.89 366.619 208.532 366.619 208.133V202.03H368.179V208.042C368.179 208.324 368.181 208.571 368.185 208.783C368.194 208.996 368.24 209.169 368.322 209.303C368.478 209.563 368.727 209.709 369.069 209.739C369.412 209.769 369.802 209.752 370.239 209.687V211ZM365.345 205.208V203.98H370.239V205.208H365.345ZM375.976 211V203.349L374.221 204.422V202.693L375.976 201.64H377.575V211H375.976Z" fill="#637887"/>
<defs>
<linearGradient id="paint0_linear_2172_738" x1="-190" y1="16" x2="-190" y2="164" gradientUnits="userSpaceOnUse">
<stop stop-color="#F0F2F5"/>
<stop offset="0.5" stop-color="#F0F2F5" stop-opacity="0"/>
</linearGradient>
<clipPath id="clip0_2172_738">
<rect width="380" height="148" fill="white" transform="translate(0 16)"/>
</clipPath>
</defs>
</svg>
