<svg width="24" height="24" viewBox="0 0 24 24" fill="none" xmlns="http://www.w3.org/2000/svg">
<g clip-path="url(#clip0_2169_467)">
<path fill-rule="evenodd" clip-rule="evenodd" d="M7.5 11.25H16.5C16.9142 11.25 17.25 10.9142 17.25 10.5V6C17.25 5.58579 16.9142 5.25 16.5 5.25H7.5C7.08579 5.25 6.75 5.58579 6.75 6V10.5C6.75 10.9142 7.08579 11.25 7.5 11.25ZM8.25 6.75H15.75V9.75H8.25V6.75ZM18.75 2.25H5.25C4.42157 2.25 3.75 2.92157 3.75 3.75V20.25C3.75 21.0784 4.42157 21.75 5.25 21.75H18.75C19.5784 21.75 20.25 21.0784 20.25 20.25V3.75C20.25 2.92157 19.5784 2.25 18.75 2.25ZM18.75 20.25H5.25V3.75H18.75V20.25ZM9.375 13.875C9.375 14.4963 8.87132 15 8.25 15C7.62868 15 7.125 14.4963 7.125 13.875C7.125 13.2537 7.62868 12.75 8.25 12.75C8.87132 12.75 9.375 13.2537 9.375 13.875ZM13.125 13.875C13.125 14.4963 12.6213 15 12 15C11.3787 15 10.875 14.4963 10.875 13.875C10.875 13.2537 11.3787 12.75 12 12.75C12.6213 12.75 13.125 13.2537 13.125 13.875ZM16.875 13.875C16.875 14.4963 16.3713 15 15.75 15C15.1287 15 14.625 14.4963 14.625 13.875C14.625 13.2537 15.1287 12.75 15.75 12.75C16.3713 12.75 16.875 13.2537 16.875 13.875ZM9.375 17.625C9.375 18.2463 8.87132 18.75 8.25 18.75C7.62868 18.75 7.125 18.2463 7.125 17.625C7.125 17.0037 7.62868 16.5 8.25 16.5C8.87132 16.5 9.375 17.0037 9.375 17.625ZM13.125 17.625C13.125 18.2463 12.6213 18.75 12 18.75C11.3787 18.75 10.875 18.2463 10.875 17.625C10.875 17.0037 11.3787 16.5 12 16.5C12.6213 16.5 13.125 17.0037 13.125 17.625ZM16.875 17.625C16.875 18.2463 16.3713 18.75 15.75 18.75C15.1287 18.75 14.625 18.2463 14.625 17.625C14.625 17.0037 15.1287 16.5 15.75 16.5C16.3713 16.5 16.875 17.0037 16.875 17.625Z" fill="black"/>
</g>
<defs>
<clipPath id="clip0_2169_467">
<rect width="24" height="24" fill="white"/>
</clipPath>
</defs>
</svg>
